# xmcd
#
# Track frame offsets:
#	150
#	15240
#	29731
#	43396
#	56360
#	73748
#	87629
#	101324
#	116803
#	132318
#	147428
#	166175
#	181768
#	196092
#	213328
#	226425
#	246999
#	263376
#	281301
#
# Disc length: 3952 seconds
#
# Revision: 1
# Processed by: cddbd v1.5.2PL0 Copyright (c) Steve Scherf et al.
# Submitted via: audiograbber 1.82.02
#
DISCID=0c0f6e13
DTITLE=Various Artist  - Country Radio - March 2017
DYEAR=2017
DGENRE=Country
TTITLE0=Kristian Bush - Sing Along
TTITLE1=Chelsea Bain - Drinkin' Alone
TTITLE2=Florida Georgia Line (Ft. Backstreet Boys) - God, Your Mama and Me
TTITLE3=Cole Swindell (Ft. Dierks Bentley) - Flatliner
TTITLE4=Levi Hart - Man I'm Proud To Be, The
TTITLE5=Adam Craig - Just A Phase
TTITLE6=Candy Fernaux - Beauty Don't Come Cheap (PO Clean Edit)
TTITLE7=Jamie Lee Thurston - Givin' Up Breathin'
TTITLE8=Bailey Bryan - Own It
TTITLE9=Rascal Flatts - Yours If You Want It
TTITLE10=Savanna Jones - I Am Real
TTITLE11=Ned LeDoux - Brother Highway
TTITLE12=Scott Brothers (Ft. Eric Paslay) - My House
TTITLE13=Brooke Eden - Act Like You Don't
TTITLE14=Tony Jackson - Nashville Cats
TTITLE15=Ashleigh Dallas - Lighthouse
TTITLE16=Lennon and Maisy - Up and Up
TTITLE17=Aleyce Simmonds - Defeated
TTITLE18=Ricki Page - Future Of The World
EXTD=
EXTT0=
EXTT1=
EXTT2=
EXTT3=
EXTT4=
EXTT5=
EXTT6=
EXTT7=
EXTT8=
EXTT9=
EXTT10=
EXTT11=
EXTT12=
EXTT13=
EXTT14=
EXTT15=
EXTT16=
EXTT17=
EXTT18=
PLAYORDER=
